<?xml version="1.0" encoding="UTF-8"?>
<svg id="Layer_2" data-name="Layer 2" xmlns="http://www.w3.org/2000/svg" viewBox="0 0 746.95 289.5">
  <g id="Website_Landing" data-name="Website Landing">
    <g id="Logo">
      <g>
        <path d="m159,137.75c0,45.25-28.75,78.25-77,78.25-44.75,0-76.75-26.75-76.75-76.25h32.5c0,30,14.5,45.25,44.25,45.25s44-20.75,44-47.25v-69.5h-52.75v-30.75h85.75v100.25Z" style="fill: #fff; stroke-width: 0px;"/>
        <path d="m320.5,212.5h-131V37.5h131v32h-98.25v40.25h94.75v30.75h-94.75v39.5h98.25v32.5Z" style="fill: #fff; stroke-width: 0px;"/>
        <path d="m401.49,67.5h-55.5v-30h144v30h-55.5v145h-33V67.5Z" style="fill: #fff; stroke-width: 0px;"/>
        <path d="m629.24,212.75v-70.75h-86v70.75h-33V37.75h33v73.75h86V37.75h32.75v175h-32.75Z" style="fill: #fff; stroke-width: 0px;"/>
      </g>
      <g id="Logo-2" data-name="Logo">
        <path d="m711.97,42.51h23.28c-9.85,17.06-19.7,34.12-29.54,51.18-.08.15-.12.1-.19,0-1.81-3.19-3.66-6.36-5.47-9.55-4.43-7.82-9.15-15.55-13.45-23.4,5.53,3.17,11.03,6.37,16.55,9.55.53.3,1.06.59,1.58.91.12.07.13.04.18-.05,2.4-4.11,4.74-8.26,7.15-12.36,2.32-4.04,4.65-8.07,6.97-12.1.06-.09.09-.12-.03-.19-2.36-1.29-4.68-2.65-7.04-3.93,0-.02,0-.04.01-.06Zm-14.51,29.08s-.03.03-.04.04c2.06,3.52,4.08,7.08,6.13,10.61.66,1.14,1.31,2.27,1.96,3.41.1.18.14.18.25,0,7.48-13.05,15.1-26.02,22.52-39.1-5.86.17-3.74-1.13-6.79,3.84-3.44,5.95-6.86,11.91-10.31,17.85-1.08,1.86-2.12,3.75-3.23,5.6-.52.9-1.04,1.8-1.55,2.7-.07.13-.1.14-.23.06-2.9-1.68-5.8-3.36-8.71-5.02Z" style="fill: #fff; stroke-width: 0px;"/>
        <path d="m711.97,42.51h23.28c-9.85,17.06-19.7,34.12-29.54,51.18-.08.15-.12.1-.19,0-1.81-3.19-3.66-6.36-5.47-9.55-4.43-7.82-9.15-15.55-13.45-23.4,5.53,3.17,11.03,6.37,16.55,9.55.53.3,1.06.59,1.58.91.12.07.13.04.18-.05,2.4-4.11,4.74-8.26,7.15-12.36,2.32-4.04,4.65-8.07,6.97-12.1.06-.09.09-.12-.03-.19-2.36-1.29-4.68-2.65-7.04-3.93,0-.02,0-.04.01-.06Zm-14.51,29.08s-.03.03-.04.04c2.06,3.52,4.08,7.08,6.13,10.61.66,1.14,1.31,2.27,1.96,3.41.1.18.14.18.25,0,7.48-13.05,15.1-26.02,22.52-39.1-5.86.17-3.74-1.13-6.79,3.84-3.44,5.95-6.86,11.91-10.31,17.85-1.08,1.86-2.12,3.75-3.23,5.6-.52.9-1.04,1.8-1.55,2.7-.07.13-.1.14-.23.06-2.9-1.68-5.8-3.36-8.71-5.02Z" style="fill: #fff; stroke-width: 0px;"/>
        <path d="m716.38,97.77c-2.93.06-5.71-.39-8.52-1.14-.11-.03-.24-.06-.11-.27.41-.65.77-1.32,1.14-1.99.09-.15.16-.2.35-.16,1.79.46,3.62.74,5.47.84,19.67,1.22,34.48-18.37,27.99-36.96-1.35-3.95-3.62-7.55-6.54-10.53-.11-.12-.1-.2-.03-.32.4-.68.79-1.36,1.18-2.04.09-.16.16-.13.26-.03,3.72,3.57,6.5,8.09,8,13.02,6.08,19.51-8.77,39.63-29.19,39.59Z" style="fill: #fff; stroke-width: 0px;"/>
        <path d="m716.38,97.77c-2.93.06-5.71-.39-8.52-1.14-.11-.03-.24-.06-.11-.27.41-.65.77-1.32,1.14-1.99.09-.15.16-.2.35-.16,1.79.46,3.62.74,5.47.84,19.67,1.22,34.48-18.37,27.99-36.96-1.35-3.95-3.62-7.55-6.54-10.53-.11-.12-.1-.2-.03-.32.4-.68.79-1.36,1.18-2.04.09-.16.16-.13.26-.03,3.72,3.57,6.5,8.09,8,13.02,6.08,19.51-8.77,39.63-29.19,39.59Z" style="fill: #fff; stroke-width: 0px;"/>
        <path d="m729.06,39.39c-4.27-.02-8.55.1-12.81-.15-10.16-.06-19.94,5.88-24.63,14.88-2.89,5.17-.61,5.35-4.27,3.41-.06-.03-.11-.03-.07-.14.47-1.35,1.02-2.67,1.65-3.95,7.06-14.54,25.54-21.05,40.14-14.09,0,.02,0,.03,0,.05Z" style="fill: #fff; stroke-width: 0px;"/>
        <path d="m729.06,39.39c-4.27-.02-8.55.1-12.81-.15-10.16-.06-19.94,5.88-24.63,14.88-2.89,5.17-.61,5.35-4.27,3.41-.06-.03-.11-.03-.07-.14.47-1.35,1.02-2.67,1.65-3.95,7.06-14.54,25.54-21.05,40.14-14.09,0,.02,0,.03,0,.05Z" style="fill: #fff; stroke-width: 0px;"/>
        <path d="m702.36,94.41c-10.47-5.17-17.26-16.81-16.63-28.47-.09-.81,1.38,2.23,1.5,2.31.39.67.76,1.35,1.18,2.01.42.96.34,2.05.65,3.05.53,2.37,1.39,4.66,2.51,6.81,1.88,3.6,4.58,6.76,7.8,9.22,1.13,1.59,1.98,3.39,2.99,5.07Z" style="fill: #fff; stroke-width: 0px;"/>
        <path d="m702.36,94.41c-10.47-5.17-17.26-16.81-16.63-28.47-.09-.81,1.38,2.23,1.5,2.31.39.67.76,1.35,1.18,2.01.42.96.34,2.05.65,3.05.53,2.37,1.39,4.66,2.51,6.81,1.88,3.6,4.58,6.76,7.8,9.22,1.13,1.59,1.98,3.39,2.99,5.07Z" style="fill: #fff; stroke-width: 0px;"/>
      </g>
    </g>
  </g>
</svg>