<?xml version="1.0" encoding="UTF-8"?>
<svg id="Layer_2" data-name="Layer 2" xmlns="http://www.w3.org/2000/svg" viewBox="0 0 3843.61 1586.95">
  <g id="Website_Landing" data-name="Website Landing">
    <g>
      <path d="m3842.69,837.29c-1765.13,942.15-1043.15-258.63-2118.89-87.89C1222.12,829.03,1046.48,75.94,783.81,5.98,588.39-46.06,466.4,286.19,2.69,412.07" style="fill: none; stroke: #154998; stroke-miterlimit: 10;"/>
      <path d="m2.69,467.91c36.43-11.28,71.16-23.59,104.48-36.57C487.99,284.4,620.69,37.66,804.02,77.56c120.63,26.26,201.59,152.87,312.89,303.51,147.59,199.75,321.11,443.22,629.56,399.6,761.47-107.67,640.5,381.17,1112.31,401.16,151.12,6.4,336.65-22.04,647.17-152.34,99.24-41.64,211.88-94.4,336.74-158.9" style="fill: none; stroke: #154c9a; stroke-miterlimit: 10; stroke-width: 1.29px;"/>
      <path d="m2.69,523.75c36.18-12.6,71.05-26.07,105.11-39.68C489.4,331.71,637.79,116.83,824.23,149.14c128.31,22.23,193.04,118.71,301.82,257.57,144.66,184.67,311.69,446.91,643.08,405.22,757.93-95.35,660.46,313.05,1116.7,349.7,151.94,12.21,312.07,9,616.41-106.32,98.53-37.33,213.25-87.81,340.44-151.42" style="fill: none; stroke: #164f9c; stroke-miterlimit: 10; stroke-width: 1.57px;"/>
      <path d="m2.69,579.59c35.93-13.93,70.96-28.5,105.74-42.78C491.05,379.68,655.07,195.61,844.45,220.72c136.11,18.04,184.44,84.47,290.75,211.64,141.71,169.51,302.17,450.4,656.61,410.84,754.15-84.16,680.79,245.98,1121.08,298.25,152.97,18.16,287.6,40.17,585.65-60.3,97.85-32.99,214.61-81.22,344.15-143.94" style="fill: none; stroke: #17529e; stroke-miterlimit: 10; stroke-width: 1.86px;"/>
      <path d="m2.69,635.43c35.68-15.25,70.87-30.91,106.38-45.89,383.65-161.82,563.43-315.49,755.59-297.25,144.02,13.68,175.78,50.15,279.68,165.71,138.69,154.25,292.57,453.65,670.13,416.46,750.19-73.89,701.4,179.99,1125.47,246.79,154.21,24.29,263.25,71.5,554.9-14.28,97.22-28.6,215.98-74.62,347.86-136.46" style="fill: none; stroke: #1956a0; stroke-miterlimit: 10; stroke-width: 2.14px;"/>
      <path d="m2.69,691.27c35.43-16.57,70.78-33.33,107.01-49,384.72-166.44,580.31-290.11,775.17-278.4,152,9.13,167.04,15.74,268.62,119.78,135.6,138.9,282.92,456.68,683.65,422.08,746.1-64.41,722.22,115.1,1129.85,195.33,155.6,30.63,238.99,103.01,524.14,31.73,96.61-24.15,217.34-68.03,351.57-128.98" style="fill: none; stroke: #1b59a2; stroke-miterlimit: 10; stroke-width: 2.43px;"/>
      <path d="m2.69,747.11c35.17-17.89,70.69-35.73,107.64-52.11,385.81-170.99,597.48-248.55,794.76-259.56,159.83-8.92,158.2-18.78,257.55,73.85,132.39,123.43,273.23,459.47,697.17,427.7,741.91-55.59,743.15,51.28,1134.23,143.87,157.13,37.2,214.82,134.73,493.38,77.75,96.04-19.64,218.71-61.44,355.27-121.5" style="fill: none; stroke: #1d5ca4; stroke-miterlimit: 10; stroke-width: 2.71px;"/>
      <path d="m2.69,802.95c34.92-19.21,70.61-38.13,108.27-55.22,386.92-175.48,614.99-223.08,814.34-240.71,167.4-14.8,149.21-53.41,246.48,27.92,129.02,107.87,263.5,462.01,710.69,433.32,737.67-47.32,764.11-11.48,1138.62,92.41,158.74,44.03,190.71,166.66,462.62,123.77,95.48-15.06,220.08-54.85,358.98-114.02" style="fill: none; stroke: #1f5fa7; stroke-miterlimit: 10; stroke-width: 3px;"/>
      <path d="m2.69,858.79c34.67-20.54,70.53-40.53,108.9-58.32,388.06-179.92,632.46-198.24,833.92-221.87,174.99-20.52,140.02-88.15,235.41-18.01,125.41,92.22,253.75,464.3,724.21,438.94,733.38-39.53,785.02-73.22,1143,40.96,160.39,51.16,166.64,198.83,431.86,169.78,94.93-10.4,221.44-48.26,362.69-106.54" style="fill: none; stroke: #2162a9; stroke-miterlimit: 10; stroke-width: 3.29px;"/>
      <path d="m2.69,914.63c34.42-21.86,70.45-42.92,109.54-61.43,389.21-184.31,648.14-190.99,853.5-203.02,184.13-10.79,130.58-122.99,224.34-63.94,121.5,76.52,243.99,466.34,737.74,444.56,729.06-32.16,805.81-134.02,1147.39-10.5,162.03,58.59,142.55,231.24,401.1,215.8,94.39-5.64,222.81-41.67,366.4-99.06" style="fill: none; stroke: #2265ab; stroke-miterlimit: 10; stroke-width: 3.57px;"/>
      <path d="m2.69,970.47c34.17-23.18,70.37-45.31,110.17-64.54,390.4-188.65,665.07-166.66,873.09-184.18,192.14-16.18,120.81-157.89,213.27-109.87,117.18,60.86,234.21,468.12,751.26,450.18,724.74-25.14,826.4-193.94,1151.77-61.96,163.62,66.37,118.43,259.49,370.34,261.82,93.83.87,224.17-35.08,370.1-91.58" style="fill: none; stroke: #2467ad; stroke-miterlimit: 10; stroke-width: 3.86px;"/>
      <path d="m2.69,1026.31c33.92-24.5,70.3-47.69,110.8-67.65,391.6-192.95,681.97-142.48,892.67-165.33,200.13-21.71,110.66-192.76,202.2-155.81,112.38,45.37,225.99,499.02,764.78,455.8,718.34-57.62,846.73-253.06,1156.16-113.42,165.09,74.5,94.22,296.83,339.59,307.83,93.24,4.18,225.54-28.49,373.81-84.1" style="fill: none; stroke: #266ab0; stroke-miterlimit: 10; stroke-width: 4.14px;"/>
      <path d="m2.69,1082.15c33.66-25.83,70.22-50.07,111.43-70.76,392.82-197.21,698.83-118.4,912.25-146.49,208.07-27.38,100.06-227.47,191.13-201.74,107.04,30.24,215.9,499.92,778.3,461.42,714.53-48.91,866.73-311.48,1160.54-164.88,166.39,83.02,69.88,329.94,308.83,353.85,92.6,9.24,226.9-21.9,377.52-76.62" style="fill: none; stroke: #286db2; stroke-miterlimit: 10; stroke-width: 4.43px;"/>
      <path d="m2.69,1137.99c33.41-27.15,70.15-52.44,112.06-73.86,394.07-201.42,715.65-94.43,931.83-127.64,215.97-33.18,89.05-261.79,180.06-247.67,101.22,15.7,205.81,499.99,791.82,467.04,710.7-39.96,886.36-369.28,1164.93-216.34,167.45,91.93,45.35,363.34,278.07,399.87,91.9,14.42,228.27-15.3,381.23-69.14" style="fill: none; stroke: #2a70b4; stroke-miterlimit: 10; stroke-width: 4.71px;"/>
      <path d="m2.69,1193.83c33.16-28.47,70.08-54.81,112.69-76.97,395.33-205.61,732.43-70.54,951.41-108.8,223.83-39.1,82.67-323.2,168.99-293.6s195.74,499.22,805.35,472.66c706.86-30.79,905.55-426.57,1169.31-267.79,168.2,101.26,20.6,396.89,247.31,445.88,91.11,19.69,229.64-8.71,384.94-61.66" style="fill: none; stroke: #2b74b7; stroke-miterlimit: 10; stroke-width: 5px;"/>
      <path d="m2.69,1249.67c32.91-29.79,70.02-57.17,113.33-80.08,396.62-209.76,749.15-46.73,971-89.95,231.63-45.13,67.23-355.72,157.93-339.53,88.22,15.75,185.7,497.59,818.87,478.28,702.99-21.43,924.28-483.45,1173.69-319.25,168.59,110.99-4.41,430.57,216.55,491.9,90.22,25.04,231-2.12,388.64-54.18" style="fill: none; stroke: #2d77b9; stroke-miterlimit: 10; stroke-width: 5.29px;"/>
      <path d="m2.69,1305.51c32.66-31.11,69.96-59.54,113.96-83.19,397.93-213.88,765.83-22.98,990.58-71.11,239.39-51.26,55.59-360.23,146.86-385.46,83.2-23,175.74,495.09,832.39,483.9,699.08-11.91,942.49-540.04,1178.08-370.71,168.54,121.13-29.72,464.35,185.79,537.92,89.23,30.46,232.37,4.47,392.35-46.7" style="fill: none; stroke: #2f7abc; stroke-miterlimit: 10; stroke-width: 5.57px;"/>
      <path d="m2.69,1361.35c32.4-32.44,69.89-61.89,114.59-86.29,399.25-217.98,782.45.72,1010.16-52.26,247.09-57.49,45.46-391.39,135.79-431.39,78.15-34.61,166.06,472.85,845.91,489.52,694.92,17.04,960.16-596.42,1182.46-422.17,167.98,131.68-55.33,498.17,155.03,583.93,88.11,35.92,233.73,11.06,396.06-39.22" style="fill: none; stroke: #317dbf; stroke-miterlimit: 10; stroke-width: 5.86px;"/>
      <path d="m2.69,1417.19c32.15-33.76,69.84-64.25,115.22-89.4,400.6-222.05,799.03,24.37,1029.74-33.42,254.74-63.81,36.25-422.14,124.72-477.32,73.93-46.11,156.42,472.36,859.43,495.14,690.79,22.38,977.26-652.72,1186.85-473.63,166.87,142.6-81.26,531.99,124.28,629.95,86.87,41.41,235.1,17.65,399.77-31.74" style="fill: none; stroke: #3281c1; stroke-miterlimit: 10; stroke-width: 6.14px;"/>
      <path d="m2.69,1473.03c31.9-35.08,69.83-66.52,115.85-92.51,402.35-225.4,815.56,47.98,1049.32-14.57,262.34-70.2,27.9-452.92,113.65-523.26,70.5-57.82,146.82,471.58,872.96,500.76,686.72,27.59,993.78-709.04,1191.23-525.08,165.14,153.85-107.5,565.74,93.52,675.97,85.51,46.89,236.46,24.24,403.47-24.26" style="fill: none; stroke: #3484c4; stroke-miterlimit: 10; stroke-width: 6.43px;"/>
      <path d="m2.69,1528.87c31.65-36.4,69.75-68.9,116.49-95.62,403.55-229.76,832.05,71.57,1068.91,4.27,269.88-76.68,20.16-484.02,102.58-569.19,67.66-69.92,137.26,470.49,886.48,506.38,682.69,32.7,1009.7-765.48,1195.62-576.54,162.75,165.4-134.03,599.4,62.76,721.98,84.05,52.35,237.83,30.83,407.18-16.78" style="fill: none; stroke: #3587c7; stroke-miterlimit: 10; stroke-width: 6.71px;"/>
      <path d="m2.69,1584.71c31.4-37.73,69.68-71.29,117.12-98.73,404.75-234.11,848.49,95.12,1088.49,23.12,277.38-83.21,12.78-515.57,91.51-615.12,65.22-82.47,127.75,469.09,900,512,678.71,37.71,1025.02-822.13,1200-628,159.69,177.17-148.73,617.11,32,768,87.07,50.6,239.2,37.42,410.89-9.3" style="fill: none; stroke: #368bcb; stroke-miterlimit: 10; stroke-width: 7px;"/>
    </g>
  </g>
</svg>