<?xml version="1.0" encoding="UTF-8"?>
<svg id="favicon" data-name="favicon" xmlns="http://www.w3.org/2000/svg" viewBox="0 0 1023.88 1024">
  <path d="m439.17,99.81h389.35c-4.23,7.43-8.26,14.81-12.56,22.03-11.68,19.56-22.85,39.41-34.6,58.92-10.71,17.77-20.51,36.09-30.87,54.08-52.62,91.38-105.28,182.74-157.96,274.08-12.25,21.24-24.67,42.37-36.97,63.58-12.31,21.23-24.57,42.49-36.83,63.75-13.43,23.28-26.83,46.57-40.26,69.85-12.26,21.25-24.54,42.48-36.8,63.73-15.24,26.43-30.46,52.87-45.69,79.29-13.74,23.83-27.49,47.66-41.23,71.49-6.76,11.73-13.57,23.43-20.23,35.21-1.39,2.46-2.08,1.7-3.12-.11-8.57-15.05-17.13-30.11-25.77-45.13-9.87-17.16-19.88-34.24-29.73-51.4-12.06-21.01-23.96-42.13-36.06-63.12-22.05-38.24-44.24-76.41-66.31-114.65-21.83-37.84-43.5-75.76-65.38-113.57-11.52-19.9-23.46-39.56-34.98-59.47-14.35-24.8-28.44-49.74-42.66-74.62-4.83-8.45-9.73-16.87-14.55-25.33-.61-1.07-1.68-2.1-1.05-3.74,12.03,6.84,23.91,13.52,35.71,20.33,12.46,7.2,24.81,14.56,37.25,21.79,9.54,5.53,19.15,10.94,28.71,16.43,11.84,6.8,23.68,13.6,35.49,20.46,11.83,6.87,23.6,13.85,35.43,20.71,11.31,6.56,22.67,13.04,34.02,19.54,9.57,5.48,19.17,10.91,28.72,16.42,13.83,7.98,27.61,16.04,41.44,24.01,8.8,5.07,17.74,9.92,26.42,15.18,1.98,1.2,2.19.71,3.09-.85,14.12-24.45,28.37-48.83,42.46-73.3,12.06-20.93,23.88-42,35.96-62.92,13.61-23.57,27.46-47,41.09-70.55,10.86-18.77,21.49-37.67,32.33-56.46,11.56-20.04,23.3-39.98,34.86-60.02,9.6-16.64,19.05-33.37,28.6-50.04,6.87-12,13.74-24,20.77-35.9.94-1.58,1.53-1.99-.54-3.12-15.31-8.41-30.53-16.99-45.77-25.53-19.55-10.97-39.09-21.96-58.65-32.91-4.42-2.48-8.93-4.82-13.39-7.22.08-.31.16-.62.25-.93Zm-242.71,486.3c-.22.24-.45.47-.67.71,8.45,14.49,16.94,28.96,25.33,43.49,13.35,23.14,26.6,46.34,39.95,69.48,12.4,21.49,24.9,42.93,37.31,64.42,10.97,18.99,21.94,37.98,32.75,57.06,1.74,3.08,2.4,3.08,4.12.04,6.66-11.82,13.54-23.51,20.32-35.27,25.74-44.61,51.46-89.24,77.22-133.85,26.06-45.12,52.15-90.22,78.23-135.34,13-22.49,25.99-44.97,38.96-67.48,43.49-75.48,86.95-150.97,130.44-226.45,7.41-12.86,15.12-25.55,22.24-38.57,3.02-5.51,6.96-10.59,9.19-17.01-2.03,0-3.66,0-5.29,0-20.19,0-40.38.27-60.56-.15-7.24-.15-11.71,1.19-15.52,8.43-10.02,19.04-21.41,37.37-32.19,56.01-10,17.31-19.89,34.68-29.9,51.98-8.34,14.41-16.84,28.72-25.17,43.14-8.34,14.43-16.45,28.99-24.86,43.38-9.65,16.5-19.26,33.03-28.78,49.6-9.89,17.21-19.79,34.42-29.67,51.63-11.28,19.64-22.49,39.32-34.13,58.76-10.12,16.89-19.46,34.25-29.27,51.33-8.14,14.18-16.51,28.22-24.71,42.37-8.71,15.04-17.39,30.09-25.92,45.23-1.18,2.09-1.67,2.36-3.84,1.08-12.33-7.3-24.81-14.33-37.22-21.5-20.82-12.03-41.61-24.12-62.43-36.15-15.29-8.83-30.63-17.59-45.94-26.38Z" style="fill: #ffffff; stroke-width: 0px;"/>
  <path d="m512.84,1023.9c-9.03,0-16.07.25-23.08-.05-13.39-.58-26.73-1.78-40.06-3.35-15.12-1.79-30.12-4.12-44.97-7.4-11.49-2.54-22.92-5.39-34.32-8.32-1.89-.48-3.96-1.04-1.79-4.52,6.78-10.86,12.88-22.14,19.11-33.33,1.43-2.56,2.7-3.41,5.92-2.63,15.43,3.73,30.91,7.24,46.67,9.45,14.88,2.09,29.74,3.73,44.76,4.56,14,.77,27.96.17,41.93.36,10.2.14,20.34-.66,30.42-1.62,15.97-1.52,31.84-4.09,47.6-7.31,28.42-5.8,56.04-14.27,82.86-25.11,20.06-8.11,39.4-17.86,58.15-28.81,24.65-14.39,47.86-30.75,69.48-49.32,45.38-38.96,82.18-84.84,109.94-137.87,13.45-25.7,24.63-52.34,32.82-80.21,5.21-17.72,9.74-35.62,12.95-53.8,2.08-11.77,3.25-23.69,4.64-35.58,2.65-22.83,3.52-45.69,2.23-68.56-.9-15.88-2.62-31.71-4.83-47.52-3.95-28.34-10.74-55.89-20.03-82.85-15.02-43.58-35.99-84.07-63.11-121.42-14.11-19.43-29.65-37.57-46.35-54.76-1.9-1.96-1.74-3.28-.55-5.32,6.63-11.33,13.24-22.67,19.69-34.1,1.49-2.65,2.68-2.17,4.3-.43,7.19,7.74,15.24,14.61,22.09,22.73,4.65,5.51,9.62,10.78,14.34,16.26,10.06,11.68,19.33,23.95,28.21,36.52,11.37,16.1,21.79,32.84,30.84,50.36,8.67,16.78,16.95,33.74,24.04,51.32,5.37,13.33,10.08,26.86,14.33,40.52,6.07,19.49,11.05,39.28,14.33,59.51,1.82,11.19,3.76,22.38,5.01,33.61.96,8.61,1.76,17.28,2.12,25.99.43,10.4,1.01,20.78,1.26,31.2.3,12.54-.67,25.03-1.63,37.46-1.36,17.65-3.81,35.2-6.81,52.71-8.86,51.64-25.5,100.57-49.73,146.93-15.51,29.66-33.69,57.6-54.86,83.59-5.82,7.14-12.15,13.78-18.09,20.78-10.24,12.07-21.77,22.9-33.09,33.86-8.79,8.5-18.31,16.35-27.99,23.94-11.39,8.93-23,17.51-34.96,25.65-10.79,7.34-21.85,14.22-33.2,20.62-30.21,17.05-61.73,31.18-94.76,41.82-25.14,8.09-50.74,14.29-76.86,18.35-16.21,2.52-32.5,4.09-48.85,5.44-10.76.89-21.45.01-30.15.68Z" style="fill: #ffffff; stroke-width: 0px;"/>
  <path d="m724.92,47.54c-1.41,0-2.82,0-4.24,0-54.13,0-108.26.24-162.39-.15-15.87-.12-31.7-2.5-47.61-2.36-75.42.65-146.83,17.7-213.89,52.47-31.34,16.25-60.43,35.8-87.29,58.71-30.85,26.32-57.8,56.13-81.16,89.27-10.93,15.51-20.56,31.75-29.6,48.41-12.86,23.72-23.02,48.55-31.54,74.08-1.22,3.67-2.41,3.67-5.42,1.95-11.38-6.49-22.89-12.73-34.38-19.03-1.03-.57-1.85-.57-1.21-2.39,7.89-22.56,17.04-44.59,27.6-66.02,12.31-24.99,27.03-48.53,43.45-71,49.2-67.33,110.91-120.02,185.42-157.48,52.61-26.45,108.27-43.16,166.75-50.25,13.76-1.67,27.57-2.64,41.45-3.04,7.27-.21,14.57-.88,21.85-.67,13.63.39,27.31.56,40.87,1.86,21.47,2.06,42.83,4.91,63.99,9.49,15.14,3.27,30.18,6.86,44.94,11.38,18.03,5.53,35.76,12.04,52.99,19.8,3.18,1.43,6.39,2.81,9.58,4.22-.05.25-.1.5-.15.75Z" style="fill: #ffffff; stroke-width: 0px;"/>
  <path d="m278.41,967.78c-7.31-2.49-13.41-6.46-19.62-10-12.9-7.36-25.61-15.08-37.69-23.76-10.92-7.85-21.82-15.7-32.18-24.34-10.27-8.56-20.07-17.59-30.07-26.41-8.38-7.4-15.83-15.6-23.39-23.68-14.52-15.52-27.68-32.2-40.18-49.43-18.9-26.06-34.84-53.81-48.48-82.9-11.67-24.89-21.22-50.58-28.56-77.08-4.34-15.7-8.13-31.55-10.79-47.64-2.3-13.88-4.13-27.81-5.53-41.83-2.3-23.03-2.08-46.06-1.63-69.12.02-.81-.48-2,.62-2.35,1.27-.4,1.63.79,2.14,1.69,7.43,13.09,14.86,26.19,22.36,39.25,6.46,11.24,12.7,22.63,19.68,33.53,3.22,5.03,3.73,10.43,4.41,15.8,1.5,11.9,3.91,23.6,6.45,35.29,3.89,17.91,9.11,35.44,15.3,52.69,7.53,20.98,16.27,41.42,26.65,61.16,12.6,23.97,26.94,46.77,43.73,68.06,7.37,9.35,14.89,18.5,22.85,27.37,19.45,21.66,40.78,41.22,63.91,58.84,3.51,2.67,5.12,6.53,7.18,10.1,14.09,24.36,28.09,48.79,42.11,73.19.2.35.35.72.75,1.57Z" style="fill: #ffffff; stroke-width: 0px;"/>
</svg>